<svg xmlns="http://www.w3.org/2000/svg" width="60" viewBox="0 0 60 60" height="60" version="1.0"><path fill="#F9DB95" d="M 0 42.164062 L 0 48.6875 C 0 54.914062 5.074219 59.988281 11.300781 59.988281 L 23.324219 59.988281 L 11.949219 35.335938 Z M 0 42.164062"/><path fill="#F9DB95" d="M 28.824219 59.988281 L 37.300781 59.988281 L 37.300781 20.863281 L 16.324219 32.863281 Z M 28.824219 59.988281"/><path fill="#F9DB95" d="M 9.375 0.1875 C 4.050781 1.085938 0 5.738281 0 11.3125 L 0 36.386719 L 25.226562 21.988281 Z M 9.375 0.1875"/><path fill="#F9DB95" d="M 57.101562 3.789062 C 55.023438 1.460938 52.023438 0.0117188 48.675781 0.0117188 L 15.449219 0.0117188 L 29.601562 19.488281 Z M 57.101562 3.789062"/><path fill="#F9DB95" d="M 59.550781 8.164062 L 42.300781 18.011719 L 42.300781 30.3125 L 60 30.3125 L 60 11.3125 C 60 10.210938 59.851562 9.164062 59.550781 8.164062 Z M 59.550781 8.164062"/><path fill="#F9DB95" d="M 42.300781 59.988281 L 48.675781 59.988281 C 54.925781 59.988281 60 54.914062 60 48.6875 L 60 35.3125 L 42.300781 35.3125 Z M 42.300781 59.988281"/></svg>
